<svg viewBox="0 0 240 160" role="img" aria-label="A neural network whose layers shade from blue to violet to coral, with signed weighted edges" xmlns="http://www.w3.org/2000/svg"><defs><linearGradient id="t-ma1407-bg" x1="0" y1="0" x2="1" y2="1"><stop offset="0" stop-color="#EFEAFB"/><stop offset="1" stop-color="#FFFFFF"/></linearGradient></defs><rect width="240" height="160" fill="url(#t-ma1407-bg)"/><line x1="34" y1="30.5" x2="91.3" y2="25" stroke="#E4604E" stroke-width="0.7" stroke-opacity="0.2"/><line x1="34" y1="30.5" x2="91.3" y2="47" stroke="#E4604E" stroke-width="1.1" stroke-opacity="0.4"/><line x1="34" y1="30.5" x2="91.3" y2="69" stroke="#1E4E8C" stroke-width="0.6" stroke-opacity="0.2"/><line x1="34" y1="30.5" x2="91.3" y2="91" stroke="#E4604E" stroke-width="1.5" stroke-opacity="0.5"/><line x1="34" y1="30.5" x2="91.3" y2="113" stroke="#1E4E8C" stroke-width="0.5" stroke-opacity="0.1"/><line x1="34" y1="30.5" x2="91.3" y2="135" stroke="#E4604E" stroke-width="0.6" stroke-opacity="0.2"/><line x1="34" y1="63.5" x2="91.3" y2="25" stroke="#E4604E" stroke-width="1.5" stroke-opacity="0.5"/><line x1="34" y1="63.5" x2="91.3" y2="47" stroke="#1E4E8C" stroke-width="0.5" stroke-opacity="0.1"/><line x1="34" y1="63.5" x2="91.3" y2="69" stroke="#E4604E" stroke-width="1.6" stroke-opacity="0.5"/><line x1="34" y1="63.5" x2="91.3" y2="91" stroke="#E4604E" stroke-width="0.5" stroke-opacity="0.1"/><line x1="34" y1="63.5" x2="91.3" y2="113" stroke="#E4604E" stroke-width="1.5" stroke-opacity="0.5"/><line x1="34" y1="63.5" x2="91.3" y2="135" stroke="#E4604E" stroke-width="1.4" stroke-opacity="0.5"/><line x1="34" y1="96.5" x2="91.3" y2="25" stroke="#E4604E" stroke-width="0.5" stroke-opacity="0.1"/><line x1="34" y1="96.5" x2="91.3" y2="47" stroke="#1E4E8C" stroke-width="1.1" stroke-opacity="0.3"/><line x1="34" y1="96.5" x2="91.3" y2="69" stroke="#E4604E" stroke-width="1.2" stroke-opacity="0.4"/><line x1="34" y1="96.5" x2="91.3" y2="91" stroke="#E4604E" stroke-width="0.9" stroke-opacity="0.3"/><line x1="34" y1="96.5" x2="91.3" y2="113" stroke="#1E4E8C" stroke-width="0.6" stroke-opacity="0.2"/><line x1="34" y1="96.5" x2="91.3" y2="135" stroke="#1E4E8C" stroke-width="1.5" stroke-opacity="0.5"/><line x1="34" y1="129.5" x2="91.3" y2="25" stroke="#1E4E8C" stroke-width="0.5" stroke-opacity="0.1"/><line x1="34" y1="129.5" x2="91.3" y2="47" stroke="#E4604E" stroke-width="0.6" stroke-opacity="0.1"/><line x1="34" y1="129.5" x2="91.3" y2="69" stroke="#1E4E8C" stroke-width="1.7" stroke-opacity="0.6"/><line x1="34" y1="129.5" x2="91.3" y2="91" stroke="#E4604E" stroke-width="1.6" stroke-opacity="0.5"/><line x1="34" y1="129.5" x2="91.3" y2="113" stroke="#1E4E8C" stroke-width="1.2" stroke-opacity="0.4"/><line x1="34" y1="129.5" x2="91.3" y2="135" stroke="#E4604E" stroke-width="0.7" stroke-opacity="0.2"/><line x1="91.3" y1="25" x2="148.7" y2="25" stroke="#E4604E" stroke-width="1.2" stroke-opacity="0.4"/><line x1="91.3" y1="25" x2="148.7" y2="47" stroke="#E4604E" stroke-width="1.3" stroke-opacity="0.4"/><line x1="91.3" y1="25" x2="148.7" y2="69" stroke="#E4604E" stroke-width="0.7" stroke-opacity="0.2"/><line x1="91.3" y1="25" x2="148.7" y2="91" stroke="#1E4E8C" stroke-width="1" stroke-opacity="0.3"/><line x1="91.3" y1="25" x2="148.7" y2="113" stroke="#E4604E" stroke-width="1" stroke-opacity="0.3"/><line x1="91.3" y1="25" x2="148.7" y2="135" stroke="#1E4E8C" stroke-width="0.5" stroke-opacity="0.1"/><line x1="91.3" y1="47" x2="148.7" y2="25" stroke="#1E4E8C" stroke-width="0.6" stroke-opacity="0.2"/><line x1="91.3" y1="47" x2="148.7" y2="47" stroke="#E4604E" stroke-width="0.6" stroke-opacity="0.2"/><line x1="91.3" y1="47" x2="148.7" y2="69" stroke="#1E4E8C" stroke-width="0.5" stroke-opacity="0.1"/><line x1="91.3" y1="47" x2="148.7" y2="91" stroke="#E4604E" stroke-width="1.5" stroke-opacity="0.5"/><line x1="91.3" y1="47" x2="148.7" y2="113" stroke="#E4604E" stroke-width="1.5" stroke-opacity="0.5"/><line x1="91.3" y1="47" x2="148.7" y2="135" stroke="#E4604E" stroke-width="0.9" stroke-opacity="0.3"/><line x1="91.3" y1="69" x2="148.7" y2="25" stroke="#1E4E8C" stroke-width="0.7" stroke-opacity="0.2"/><line x1="91.3" y1="69" x2="148.7" y2="47" stroke="#E4604E" stroke-width="0.5" stroke-opacity="0.1"/><line x1="91.3" y1="69" x2="148.7" y2="69" stroke="#E4604E" stroke-width="0.7" stroke-opacity="0.2"/><line x1="91.3" y1="69" x2="148.7" y2="91" stroke="#1E4E8C" stroke-width="0.5" stroke-opacity="0.1"/><line x1="91.3" y1="69" x2="148.7" y2="113" stroke="#E4604E" stroke-width="0.5" stroke-opacity="0.1"/><line x1="91.3" y1="69" x2="148.7" y2="135" stroke="#E4604E" stroke-width="0.7" stroke-opacity="0.2"/><line x1="91.3" y1="91" x2="148.7" y2="25" stroke="#1E4E8C" stroke-width="1" stroke-opacity="0.3"/><line x1="91.3" y1="91" x2="148.7" y2="47" stroke="#1E4E8C" stroke-width="0.7" stroke-opacity="0.2"/><line x1="91.3" y1="91" x2="148.7" y2="69" stroke="#E4604E" stroke-width="0.8" stroke-opacity="0.3"/><line x1="91.3" y1="91" x2="148.7" y2="91" stroke="#1E4E8C" stroke-width="0.5" stroke-opacity="0.1"/><line x1="91.3" y1="91" x2="148.7" y2="113" stroke="#1E4E8C" stroke-width="0.5" stroke-opacity="0.1"/><line x1="91.3" y1="91" x2="148.7" y2="135" stroke="#1E4E8C" stroke-width="1.2" stroke-opacity="0.4"/><line x1="91.3" y1="113" x2="148.7" y2="25" stroke="#1E4E8C" stroke-width="0.8" stroke-opacity="0.2"/><line x1="91.3" y1="113" x2="148.7" y2="47" stroke="#E4604E" stroke-width="0.7" stroke-opacity="0.2"/><line x1="91.3" y1="113" x2="148.7" y2="69" stroke="#1E4E8C" stroke-width="1.7" stroke-opacity="0.6"/><line x1="91.3" y1="113" x2="148.7" y2="91" stroke="#E4604E" stroke-width="1.3" stroke-opacity="0.4"/><line x1="91.3" y1="113" x2="148.7" y2="113" stroke="#E4604E" stroke-width="0.5" stroke-opacity="0.1"/><line x1="91.3" y1="113" x2="148.7" y2="135" stroke="#1E4E8C" stroke-width="0.8" stroke-opacity="0.3"/><line x1="91.3" y1="135" x2="148.7" y2="25" stroke="#E4604E" stroke-width="1.1" stroke-opacity="0.4"/><line x1="91.3" y1="135" x2="148.7" y2="47" stroke="#E4604E" stroke-width="0.5" stroke-opacity="0.1"/><line x1="91.3" y1="135" x2="148.7" y2="69" stroke="#E4604E" stroke-width="1.6" stroke-opacity="0.5"/><line x1="91.3" y1="135" x2="148.7" y2="91" stroke="#1E4E8C" stroke-width="0.6" stroke-opacity="0.2"/><line x1="91.3" y1="135" x2="148.7" y2="113" stroke="#1E4E8C" stroke-width="0.9" stroke-opacity="0.3"/><line x1="91.3" y1="135" x2="148.7" y2="135" stroke="#1E4E8C" stroke-width="0.5" stroke-opacity="0.1"/><line x1="148.7" y1="25" x2="206" y2="36" stroke="#1E4E8C" stroke-width="1.2" stroke-opacity="0.4"/><line x1="148.7" y1="25" x2="206" y2="80" stroke="#E4604E" stroke-width="0.7" stroke-opacity="0.2"/><line x1="148.7" y1="25" x2="206" y2="124" stroke="#1E4E8C" stroke-width="0.7" stroke-opacity="0.2"/><line x1="148.7" y1="47" x2="206" y2="36" stroke="#1E4E8C" stroke-width="0.5" stroke-opacity="0.1"/><line x1="148.7" y1="47" x2="206" y2="80" stroke="#1E4E8C" stroke-width="0.5" stroke-opacity="0.1"/><line x1="148.7" y1="47" x2="206" y2="124" stroke="#E4604E" stroke-width="0.5" stroke-opacity="0.1"/><line x1="148.7" y1="69" x2="206" y2="36" stroke="#1E4E8C" stroke-width="1.1" stroke-opacity="0.4"/><line x1="148.7" y1="69" x2="206" y2="80" stroke="#1E4E8C" stroke-width="1.5" stroke-opacity="0.5"/><line x1="148.7" y1="69" x2="206" y2="124" stroke="#E4604E" stroke-width="0.5" stroke-opacity="0.1"/><line x1="148.7" y1="91" x2="206" y2="36" stroke="#1E4E8C" stroke-width="0.6" stroke-opacity="0.2"/><line x1="148.7" y1="91" x2="206" y2="80" stroke="#E4604E" stroke-width="1.5" stroke-opacity="0.5"/><line x1="148.7" y1="91" x2="206" y2="124" stroke="#1E4E8C" stroke-width="0.7" stroke-opacity="0.2"/><line x1="148.7" y1="113" x2="206" y2="36" stroke="#1E4E8C" stroke-width="0.6" stroke-opacity="0.2"/><line x1="148.7" y1="113" x2="206" y2="80" stroke="#1E4E8C" stroke-width="1.8" stroke-opacity="0.6"/><line x1="148.7" y1="113" x2="206" y2="124" stroke="#1E4E8C" stroke-width="1" stroke-opacity="0.3"/><line x1="148.7" y1="135" x2="206" y2="36" stroke="#E4604E" stroke-width="0.7" stroke-opacity="0.2"/><line x1="148.7" y1="135" x2="206" y2="80" stroke="#E4604E" stroke-width="0.6" stroke-opacity="0.1"/><line x1="148.7" y1="135" x2="206" y2="124" stroke="#1E4E8C" stroke-width="0.6" stroke-opacity="0.2"/><circle cx="34" cy="30.5" r="7" fill="#C3D0E0" stroke="#1E4E8C" stroke-width="1.4"/><circle cx="34" cy="63.5" r="7" fill="#7995BA" stroke="#1E4E8C" stroke-width="1.4"/><circle cx="34" cy="96.5" r="7" fill="#AABCD4" stroke="#1E4E8C" stroke-width="1.4"/><circle cx="34" cy="129.5" r="7" fill="#B3C3D8" stroke="#1E4E8C" stroke-width="1.4"/><circle cx="91.3" cy="25" r="7" fill="#CCCBE6" stroke="#514FAB" stroke-width="1.4"/><circle cx="91.3" cy="47" r="7" fill="#6F6EBA" stroke="#514FAB" stroke-width="1.4"/><circle cx="91.3" cy="69" r="7" fill="#C3C2E2" stroke="#514FAB" stroke-width="1.4"/><circle cx="91.3" cy="91" r="7" fill="#B3B2DA" stroke="#514FAB" stroke-width="1.4"/><circle cx="91.3" cy="113" r="7" fill="#A09FD1" stroke="#514FAB" stroke-width="1.4"/><circle cx="91.3" cy="135" r="7" fill="#6260B3" stroke="#514FAB" stroke-width="1.4"/><circle cx="148.7" cy="25" r="7" fill="#DDCADF" stroke="#935597" stroke-width="1.4"/><circle cx="148.7" cy="47" r="7" fill="#C09BC2" stroke="#935597" stroke-width="1.4"/><circle cx="148.7" cy="69" r="7" fill="#B78EBA" stroke="#935597" stroke-width="1.4"/><circle cx="148.7" cy="91" r="7" fill="#9C64A0" stroke="#935597" stroke-width="1.4"/><circle cx="148.7" cy="113" r="7" fill="#A26CA5" stroke="#935597" stroke-width="1.4"/><circle cx="148.7" cy="135" r="7" fill="#9E66A2" stroke="#935597" stroke-width="1.4"/><circle cx="206" cy="36" r="7" fill="#F3B6AE" stroke="#E4604E" stroke-width="1.4"/><circle cx="206" cy="80" r="7" fill="#F0A69C" stroke="#E4604E" stroke-width="1.4"/><circle cx="206" cy="124" r="7" fill="#F1ACA3" stroke="#E4604E" stroke-width="1.4"/></svg>
